<?xml version="1.0" encoding="utf-8"?>
<!-- Generator: Adobe Illustrator 24.0.0, SVG Export Plug-In . SVG Version: 6.00 Build 0)  -->
<svg version="1.1" id="Layer_1" xmlns="http://www.w3.org/2000/svg" xmlns:xlink="http://www.w3.org/1999/xlink" x="0px" y="0px"
	 viewBox="0 0 900.8 800" style="enable-background:new 0 0 900.8 800;" xml:space="preserve">
<style type="text/css">
	.st0{fill:#4285F4;}
	.st1{fill:#34A853;}
	.st2{fill:#FBBC04;}
	.st3{fill:#EA4335;}
	.st4{fill:#C5221F;}
</style>
<path class="st0" d="M156.5,666.7h113.1V392L108,270.8v347.4C108,645,129.7,666.7,156.5,666.7z"/>
<path class="st1" d="M657.4,666.7h113.1c26.8,0,48.5-21.7,48.5-48.5V270.8L657.4,392V666.7z"/>
<path class="st2" d="M657.4,181.9v210L819,270.8v-64.6c0-59.9-68.4-94.1-116.3-58.2L657.4,181.9z"/>
<path class="st3" d="M269.6,392v-210l193.9,145.4l193.9-145.4v210L463.5,537.4L269.6,392z"/>
<path class="st4" d="M108,206.2v64.6L269.6,392v-210L224.4,148C176.4,112.1,108,146.3,108,206.2z"/>
</svg>
