<?xml version="1.0" encoding="utf-8"?>
<!-- Generator: Adobe Illustrator 24.0.0, SVG Export Plug-In . SVG Version: 6.00 Build 0)  -->
<svg version="1.1" id="svg" xmlns="http://www.w3.org/2000/svg" xmlns:xlink="http://www.w3.org/1999/xlink" x="0px" y="0px"
	 viewBox="0 0 400 400" style="enable-background:new 0 0 400 400;" xml:space="preserve">
<style type="text/css">
	.st0{fill-rule:evenodd;clip-rule:evenodd;fill:#1DDA63;}
	.st1{fill-rule:evenodd;clip-rule:evenodd;fill:#1B1413;}
</style>
<g id="Spotify">
	<linearGradient id="SVGID_1_" gradientUnits="userSpaceOnUse" x1="9.094947e-13" y1="72" x2="72" y2="7.105427e-13">
		<stop  offset="0" style="stop-color:#FEB811"/>
		<stop  offset="1" style="stop-color:#9E27AD"/>
	</linearGradient>
	<rect class="st0" width="72" height="72"/>
</g>
<g id="Guides">
</g>
<g>
	<path class="st0" d="M187.4,42.8c-7.4,0.8-10.7,1.3-19.2,2.8c-3.1,0.5-12.3,3-16.6,4.4c-2.8,0.9-7.5,2.6-9.4,3.4
		c-0.7,0.3-2.5,1-4,1.6c-30.4,12.5-58.3,37.4-75.5,67.6c-1.9,3.4-6.9,13.6-8.1,16.6c-0.4,1-1,2.5-1.4,3.4c-2.4,5.5-6.7,20.4-8,27.8
		c-0.3,1.4-0.6,3.4-0.8,4.4c-0.4,2-1,7.3-1.6,13.8c-0.5,5.6-0.5,18.3,0,23.3c0.8,8,1.3,11.6,2.1,15.9c0.7,4.1,2.7,12.8,3.6,15.6
		c1.2,3.9,4.5,13.7,4.8,14c0.2,0.2,0.4,0.9,0.6,1.4c0.3,1,0.6,1.6,2.6,6.2c18.1,40.7,58.7,76.1,99,86.2c0.7,0.2,3.4,0.9,6,1.6
		c23.7,6.2,54.2,6.3,76.9,0.2c1.2-0.3,3.1-0.8,4.4-1.2c34.3-9.1,67.8-33.3,88-63.6c5.2-7.8,14.1-24.2,14.1-25.9
		c0-0.3,0.2-0.7,0.3-0.9c0.8-0.9,5.3-13.5,6.6-18.7c0.3-1.3,0.9-3.3,1.2-4.4c6.1-22.5,6-52.8-0.1-76.7c-0.7-2.5-1.3-5.1-1.4-5.6
		c-8.1-31.9-33.3-66.6-62.6-86.3c-3.4-2.3-9.6-6.1-9.8-6.1c-0.1,0-0.9-0.4-1.7-1c-1.7-1-9.1-4.9-12.1-6.1c-1-0.4-3-1.3-4.4-1.9
		c-1.4-0.6-3.2-1.4-3.9-1.7c-1.4-0.6-10.3-3.6-12.3-4.1C223.6,43.2,203.7,41.1,187.4,42.8 M198.2,126.4c8.3,0.6,20.9,1.9,26,2.7
		c1.3,0.2,3.7,0.6,5.3,0.8c25.5,3.8,53.9,13.1,75.1,24.6c9.8,5.3,13.1,12.2,9.8,20.4c-2.9,7.4-13,11.4-19.8,7.7
		c-5.8-3.1-17-8.7-18.6-9.3c-1-0.4-2.3-0.9-3-1.2c-6.2-2.7-19.6-7-28-9c-1.1-0.3-3-0.7-4.2-1c-2.5-0.6-10.7-2.2-17.8-3.4
		c-34.7-5.9-78.7-4.3-109,4c-5,1.4-6.2,1.6-9,1.4c-14.2-0.7-19-19.1-7-26.9c5.9-3.9,34.2-9.2,57.4-10.9
		C162.5,126,191.3,125.9,198.2,126.4 M186.4,180.4c21.2,1.1,41.7,4.9,61.2,11.4c22.1,7.3,41.8,17.6,44.5,23.1
		c5.7,12-7.7,22.6-18.9,15.1c-3.4-2.3-14.7-7.9-21-10.4c-24.8-9.9-51.2-14.8-79.5-14.8c-18.5,0-34.7,2.2-53.5,7.2
		c-5.1,1.4-6.8,1.4-9.8,0c-10.6-4.7-9.8-19.2,1.1-23C129.8,182.5,160.2,179,186.4,180.4 M191.3,232c2.3,0.2,6,0.6,8.3,0.8
		c17.8,1.8,38.1,7.5,54.6,15.4c5.6,2.7,14.9,7.9,16.1,9c7.4,6.9,1.5,18.9-8.4,17.1c-0.7-0.1-3.5-1.5-6.1-3
		c-20.4-11.5-39.9-17.4-65.2-19.5c-10.6-0.9-31.4-0.5-39.9,0.8c-0.7,0.1-2.7,0.4-4.5,0.6c-5.6,0.8-13.5,2.1-16.4,2.6
		c-1.5,0.3-4.6,0.9-6.8,1.4c-9.2,1.9-14.4-1.3-14.4-9.1c0-6,2.6-8.5,11-10.3C142.1,232.8,173.5,230.3,191.3,232"/>
	<path class="st1" d="M0,200v200h200h200V200V0H200H0V200 M213.6,43c12.7,1.3,17.4,2.2,31,5.8c2,0.5,10.9,3.5,12.3,4.1
		c0.7,0.3,2.5,1.1,3.9,1.7c1.4,0.6,3.4,1.5,4.4,1.9c2.9,1.3,10.4,5.1,12.1,6.1c0.8,0.5,1.6,1,1.7,1c0.3,0,6.4,3.8,9.8,6.1
		c29.2,19.7,54.4,54.4,62.6,86.3c0.1,0.6,0.8,3.1,1.4,5.6c6.2,23.9,6.2,54.2,0.1,76.7c-0.3,1.2-0.8,3.1-1.2,4.4
		c-1.4,5.1-5.9,17.8-6.6,18.7c-0.2,0.2-0.3,0.6-0.3,0.9c0,1.7-8.9,18.1-14.1,25.9c-20.2,30.3-53.6,54.4-88,63.6
		c-1.3,0.3-3.2,0.9-4.4,1.2c-22.7,6.1-53.2,6.1-76.9-0.2c-2.6-0.7-5.3-1.4-6-1.6c-40.3-10.2-80.9-45.5-99-86.2
		c-2-4.6-2.3-5.2-2.6-6.2c-0.2-0.5-0.4-1.2-0.6-1.4c-0.3-0.3-3.6-10.1-4.8-14c-0.8-2.8-2.8-11.5-3.6-15.6c-0.8-4.3-1.2-7.9-2.1-15.9
		c-0.5-5-0.5-17.7,0-23.3c0.6-6.4,1.2-11.7,1.6-13.8c0.2-1,0.6-3,0.8-4.4c1.3-7.4,5.6-22.3,8-27.8c0.4-0.9,1-2.4,1.4-3.4
		c14.2-35.9,47.5-69.4,83.6-84.2c1.5-0.6,3.3-1.4,4-1.6c1.9-0.8,6.6-2.5,9.4-3.4c4.3-1.4,13.5-3.8,16.6-4.4c8.5-1.5,11.8-2,19.2-2.8
		C192.8,42.3,207.4,42.4,213.6,43 M155.4,126.5c-23.2,1.7-51.5,7-57.4,10.9c-12,7.9-7.2,26.3,7,26.9c2.8,0.1,4-0.1,9-1.4
		c30.3-8.3,74.3-9.9,109-4c7.1,1.2,15.3,2.8,17.8,3.4c1.2,0.3,3.1,0.8,4.2,1c8.4,2,21.8,6.3,28,9c0.7,0.3,2,0.8,3,1.2
		c1.6,0.6,12.8,6.2,18.6,9.3c6.8,3.6,16.9-0.3,19.8-7.7c3.3-8.2,0-15-9.8-20.4c-21.2-11.6-49.5-20.9-75.1-24.6
		c-1.6-0.2-4-0.6-5.3-0.8c-5.1-0.8-17.7-2.1-26-2.7C191.3,125.9,162.5,126,155.4,126.5 M160.2,180.4c-15.7,0.7-37.8,4.6-49.7,8.6
		c-11,3.7-11.7,18.3-1.1,23c3.1,1.4,4.8,1.4,9.8,0c18.7-5,34.9-7.2,53.5-7.2c13.5,0,22.3,0.7,37.3,3c15.2,2.3,35.6,8.4,48.4,14.4
		c6.5,3,12.6,6.2,14.8,7.7c11.2,7.5,24.6-3.2,18.9-15.1c-1.2-2.4-3.6-4.5-9.3-7.8c-17.2-9.8-38-17.5-59.4-21.9
		C202.5,180.9,182.7,179.4,160.2,180.4 M157.4,232.2c-15.7,1.3-39.7,5.3-43.8,7.4c-6.9,3.5-6.8,13.8,0.1,17.5c2,1,4.9,1.1,9.3,0.2
		c2.2-0.5,5.3-1.1,6.8-1.4c2.9-0.6,10.8-1.9,16.4-2.6c1.8-0.2,3.8-0.5,4.5-0.6c16.4-2.4,44.3-1.4,61.4,2.2
		c15.7,3.3,29.6,8.6,43.7,16.5c2.6,1.5,5.4,2.8,6.1,3c9.8,1.8,15.7-10.2,8.4-17.1c-1.2-1.1-10.5-6.3-16.1-9
		c-16.5-7.9-36.8-13.6-54.6-15.4c-2.3-0.2-6.1-0.6-8.3-0.8C185.7,231.5,165.2,231.6,157.4,232.2"/>
</g>
</svg>
